<svg xmlns="http://www.w3.org/2000/svg" viewBox="0 0 64 24" width="64" height="24" fill="none">
  <rect width="64" height="24" rx="4" fill="#1a1f27"/>
  <rect x="18" y="6" width="28" height="12" rx="2" fill="#2e77bb"/>
  <path d="M22 15l2.2-6h2L28.4 15h-2l-.4-1.1h-2.2l-.4 1.1h-2zm3-2.8l-.6-1.8-.6 1.8h1.2zM29 15v-6h2.9c1.4 0 2.2.7 2.2 1.8 0 .9-.6 1.5-1.5 1.7l1.7 2.5H33l-1.5-2.2H31v2.2h-2zm2-3.4h.8c.7 0 1-.2 1-.6s-.3-.6-1-.6H31v1.2zM36 15l2.2-6h2L42.4 15h-2l-.4-1.1h-2.2l-.4 1.1H36zm3-2.8l-.6-1.8-.6 1.8h1.2z" fill="#fff"/>
</svg>
