<svg xmlns="http://www.w3.org/2000/svg" viewBox="0 0 64 24" width="64" height="24" fill="none">
  <rect width="64" height="24" rx="4" fill="#1a1f27"/>
  <path fill="#fff" d="M21.6 12.2c0-2 1.6-3 1.6-3-.7-1.1-1.8-1.2-2.2-1.2-1 0-1.8.6-2.2.6-.5 0-1.3-.6-2.1-.6-1.1 0-2.1.7-2.7 1.7-1.2 2-.3 4.9.9 6.5.6.8 1.4 1.7 2.3 1.7.9 0 1.2-.6 2.3-.6s1.4.6 2.2.6c.9 0 1.6-.8 2.2-1.6.4-.6.6-1.1.7-1.1-.1 0-2.4-.9-2.4-2.9Zm8.9-1.8V18h-1.9v-7.6h1.9Zm5.6 0c1.1 0 2 .4 2.6 1.1.6.7.9 1.7.9 2.9 0 1.1-.3 2-1 2.8-.6.8-1.5 1.2-2.6 1.2-1.1 0-2-.4-2.6-1.1-.6-.7-.9-1.7-.9-2.9 0-1.2.3-2.1 1-2.9.6-.7 1.5-1.1 2.6-1.1Zm0 1.6c-.6 0-1 .2-1.3.7-.3.5-.5 1.1-.5 1.9 0 .9.2 1.5.5 2 .3.5.8.7 1.4.7.6 0 1-.2 1.3-.7.3-.5.5-1.1.5-1.9 0-.8-.2-1.4-.5-1.9-.3-.5-.8-.7-1.4-.7ZM42.6 8h1.9v10H42.6V8Zm10.3 2.6V18H51v-7.6h1.9Zm3.8 0c1.1 0 1.9.4 2.5 1.1.6.7.9 1.7.9 2.9 0 1.1-.3 2-1 2.8-.6.8-1.5 1.2-2.6 1.2s-2-.4-2.6-1.1c-.6-.7-.9-1.7-.9-2.9 0-1.2.3-2.1 1-2.9.6-.7 1.5-1.1 2.6-1.1Zm0 1.6c-.6 0-1 .2-1.3.7-.3.5-.5 1.1-.5 1.9 0 .9.2 1.5.5 2 .3.5.8.7 1.4.7s1-.2 1.3-.7c.3-.5.5-1.1.5-1.9 0-.8-.2-1.4-.5-1.9-.3-.5-.8-.7-1.4-.7Z"/>
</svg>
