<svg xmlns="http://www.w3.org/2000/svg" viewBox="0 0 64 24" width="64" height="24" fill="none">
  <rect width="64" height="24" rx="4" fill="#1a1f27"/>
  <text x="10" y="16" font-size="12" font-family="Arial, Helvetica, sans-serif" fill="#1a1f27">.</text>
  <path d="M12.4 17l2.1-10h2.7l-2.1 10h-2.7Zm8.5.1c-1.6 0-2.7-.8-2.7-2 0-.9.8-1.5 2.1-1.6l1.2-.1c.4 0 .6-.1.6-.3 0-.4-.5-.7-1.2-.7-.7 0-1.3.2-1.9.6l-.4-1.8c.7-.4 1.6-.6 2.6-.6 1.8 0 3 1 3 2.6 0 1.8-1.5 2.7-3.4 2.7h-.2c-.2 0-.4.1-.4.3 0 .3.3.5.8.5.7 0 1.2-.2 1.8-.5l.4 1.7c-.6.4-1.4.7-2.3.7Zm9.5-.1h-2.3l-1.4-8.1h2.6l.6 5 2.6-5h2.4l-4.5 8.1Zm7.9 0-1.7-10H39l1.7 10h-2.6Zm8.7 0 2.1-10h2.5l-2.1 10h-2.5Z" fill="#1a73e8"/>
  <path d="M46.4 17l1.1-5.4c.3-1.3 1.2-2.1 2.5-2.1.8 0 1.4.2 1.9.6l-.5 2c-.3-.2-.6-.3-1-.3-.5 0-.9.3-1 .8L49 17h-2.6Z" fill="#fbbc05"/>
</svg>
