<svg xmlns="http://www.w3.org/2000/svg" viewBox="0 0 64 64" width="64" height="64" fill="none">
  <defs>
    <filter id="s" x="-20%" y="-20%" width="140%" height="140%">
      <feDropShadow dx="0" dy="3" stdDeviation="4" flood-color="#000" flood-opacity="0.35" />
    </filter>
  </defs>
  <g filter="url(#s)">
    <circle cx="32" cy="32" r="28" fill="#25D366"/>
    <path d="M32 15a17 17 0 0 0-14.7 26l-1.6 5.8 6-1.6A17 17 0 1 0 32 15Zm0-2a19 19 0 1 1 0 38l-3.2-.2-9.4 2.5 2.5-9.4A19 19 0 0 1 32 13Z" fill="#fff"/>
    <path d="M27 24.7c-.4-.9-.8-1-1.2-1l-1 0c-.3 0-.9.1-1.4.6-.5.6-1.8 1.7-1.8 4.1s1.9 4.7 2.2 5c.3.4 3.6 5.7 8.9 7.7 4.4 1.7 5.3 1.4 6.2 1.4.9 0 3-.9 3.5-2 .4-1 .4-1.9.3-2.1-.1-.2-.3-.3-.7-.5-.4-.2-2.3-1.1-2.6-1.2-.3-.1-.6-.2-.8.2-.2.3-1 1.1-1.2 1.3-.2.2-.4.2-.8 0s-1.6-.6-3-1.9c-1.1-.9-1.8-2.1-2-2.4-.2-.3 0-.5.2-.7.2-.2.5-.5.6-.7.2-.2.3-.4.4-.6.1-.2.1-.4 0-.7-.1-.2-.8-2.1-1.1-2.9-.3-.8-.6-.7-.8-.8h-.7c-.2 0-.6.1-1 .6Z" fill="#fff"/>
  </g>
</svg>
